<svg width="87.000000" height="87.000000" viewBox="0 0 87 87" fill="none" xmlns="http://www.w3.org/2000/svg" xmlns:xlink="http://www.w3.org/1999/xlink">
	<desc>
			Created with Pixso.
	</desc>
	<defs>
		<clipPath id="clip2_19">
			<rect id="tray 1" width="87.000000" height="87.000000" fill="white" fill-opacity="0"/>
		</clipPath>
	</defs>
	<mask id="mask2_19" mask-type="alpha" maskUnits="userSpaceOnUse" x="0.000000" y="0.000000" width="87.000000" height="87.000000">
		<rect id="tray 1" width="87.000000" height="87.000000" fill="#FFFFFF" fill-opacity="0"/>
		<g clip-path="url(#clip2_19)">
			<path id="Vector" d="M18.29 53.59C17.86 54.21 18.02 55.05 18.64 55.48C19.26 55.91 20.1 55.75 20.53 55.13C20.54 55.12 20.55 55.11 20.56 55.09C25.28 47.94 33.28 43.64 41.85 43.64C42.6 43.64 43.21 43.03 43.21 42.28C43.21 41.53 42.6 40.92 41.85 40.92C32.37 40.92 23.52 45.68 18.29 53.59Z" fill="#000000" fill-opacity="1.000000" fill-rule="nonzero"/>
			<path id="Vector" d="M85.64 70.83L77.48 70.83L77.48 69.19C77.51 60.38 73.92 51.95 67.55 45.87C67.02 45.33 66.16 45.33 65.63 45.86C65.09 46.38 65.09 47.25 65.61 47.78C65.63 47.79 65.65 47.81 65.66 47.83C71.5 53.4 74.79 61.12 74.76 69.19L74.76 70.83L12.23 70.83L12.23 69.19C12.25 52.83 25.5 39.58 41.85 39.56L45.14 39.56C47.66 39.56 50.18 39.88 52.62 40.51C53.34 40.73 54.1 40.32 54.31 39.6C54.53 38.88 54.12 38.12 53.4 37.91C53.37 37.9 53.34 37.89 53.3 37.88C51.42 37.4 49.51 37.08 47.57 36.94L47.57 32.77C47.57 32.02 46.96 31.41 46.21 31.41L40.78 31.41C40.03 31.41 39.42 32.02 39.42 32.77L39.42 36.94C22.56 38.24 9.53 52.28 9.51 69.19L9.51 70.83L1.35 70.83C0.6 70.83 0 71.44 0 72.19C0 72.94 0.6 73.55 1.35 73.55L85.64 73.55C86.39 73.55 87 72.94 87 72.19C87 71.44 86.39 70.83 85.64 70.83ZM42.14 34.12L44.85 34.12L44.85 36.84L42.14 36.84L42.14 34.12Z" fill="#000000" fill-opacity="1.000000" fill-rule="nonzero"/>
			<path id="Vector" d="M57.54 30.38C58.81 31.51 59.81 32.4 59.81 34.22C59.81 36.04 58.81 36.93 57.54 38.07C55.62 39.41 54.44 41.59 54.37 43.93C54.37 44.68 54.98 45.29 55.73 45.29C56.48 45.29 57.09 44.68 57.09 43.93C57.09 42.11 58.09 41.22 59.35 40.09C61.28 38.74 62.45 36.57 62.53 34.22C62.45 31.87 61.28 29.69 59.35 28.35C58.09 27.22 57.09 26.33 57.09 24.51C57.09 22.69 58.09 21.8 59.35 20.67C61.28 19.33 62.45 17.15 62.53 14.8C62.53 14.05 61.92 13.44 61.17 13.44C60.42 13.44 59.81 14.05 59.81 14.8C59.81 16.62 58.81 17.51 57.54 18.64C55.62 19.99 54.44 22.16 54.37 24.51C54.44 26.86 55.62 29.03 57.54 30.38Z" fill="#000000" fill-opacity="1.000000" fill-rule="nonzero"/>
			<path id="Vector" d="M65.7 30.38C66.96 31.51 67.96 32.4 67.96 34.22C67.96 36.04 66.96 36.94 65.7 38.06C63.77 39.41 62.6 41.58 62.53 43.93C62.53 44.68 63.13 45.29 63.89 45.29C64.64 45.29 65.25 44.68 65.25 43.93C65.25 42.11 66.24 41.22 67.51 40.09C69.43 38.74 70.61 36.57 70.68 34.22C70.61 31.87 69.43 29.69 67.51 28.35C66.24 27.22 65.25 26.33 65.25 24.51C65.25 22.69 66.24 21.8 67.51 20.67C69.43 19.33 70.61 17.15 70.68 14.8C70.68 14.05 70.07 13.44 69.32 13.44C68.57 13.44 67.96 14.05 67.96 14.8C67.96 16.62 66.96 17.51 65.7 18.64C63.77 19.99 62.6 22.16 62.53 24.51C62.6 26.86 63.77 29.03 65.7 30.38Z" fill="#000000" fill-opacity="1.000000" fill-rule="nonzero"/>
			<path id="Vector" d="M73.86 30.38C75.12 31.51 76.12 32.4 76.12 34.22C76.12 36.04 75.12 36.94 73.86 38.06C71.93 39.41 70.75 41.58 70.68 43.93C70.68 44.68 71.29 45.29 72.04 45.29C72.79 45.29 73.4 44.68 73.4 43.93C73.4 42.11 74.4 41.22 75.67 40.09C77.59 38.74 78.77 36.57 78.84 34.22C78.77 31.87 77.59 29.69 75.67 28.35C74.4 27.22 73.4 26.33 73.4 24.51C73.4 22.69 74.4 21.8 75.67 20.67C77.59 19.33 78.77 17.15 78.84 14.8C78.84 14.05 78.23 13.44 77.48 13.44C76.73 13.44 76.12 14.05 76.12 14.8C76.12 16.62 75.12 17.51 73.86 18.64C71.93 19.99 70.75 22.16 70.68 24.51C70.75 26.86 71.93 29.03 73.86 30.38Z" fill="#000000" fill-opacity="1.000000" fill-rule="nonzero"/>
		</g>
	</mask>
	<g mask="url(#mask2_19)">
		<rect id="Rectangle 35" x="-16.000000" y="-13.000000" width="126.000000" height="104.000000" fill="#BC9060" fill-opacity="1.000000"/>
	</g>
</svg>
